# xmcd
#
# Track frame offsets: 
#        150
#        12665
#        23110
#        32977
#        43137
#        53982
#        63037
#        72280
#        81627
#        92492
#        103127
#        113265
#        124202
#        135972
#        146637
#        158647
#        167285
#        178872
#        188547
#        198687
#        208095
#        220220
#        231285
#        240342
#        250465
#        264010
#        271462
#        281720
#        291870
#        305532
#        318717
#        328960
#        340355
#
# Disc length: 4658 seconds
#
# Revision: 0
# Processed by: cddbd v1.5.2PL0 Copyright (c) Steve Scherf et al.
# Submitted via: ExactAudioCopy v0.95b3
#
DISCID=f3123021
DTITLE=Dave Clark Five  - The Complete History - Vol. 1  Glad All Over
DTITLE=Return!-American Tour 
DYEAR=1900
DGENRE=
TTITLE0=Glad All Over
TTITLE1=All Of The Time
TTITLE2=Stay
TTITLE3=Chaquita (2nd Version)
TTITLE4=Do You Love Me
TTITLE5=Bits And Pieces
TTITLE6=I Know You
TTITLE7=No Time To Lose
TTITLE8=Doo Dah
TTITLE9=Time
TTITLE10=She's All Mine
TTITLE11=Can't You See That She's Mine
TTITLE12=I Need You, I Love You
TTITLE13=I Love You No More
TTITLE14=Rumble
TTITLE15=Funny
TTITLE16=Zip-A-Dee-Doo-Dah
TTITLE17=Can I Trust You
TTITLE18=Forever And A Day
TTITLE19=Theme Without A Name
TTITLE20=On Broadway
TTITLE21=Because
TTITLE22=Who Does He Think He Is (Live)
TTITLE23=Move On (Live)
TTITLE24=Whenever You're Around (Live)
TTITLE25=I Want You Still (Live)
TTITLE26=Long Ago (Live)
TTITLE27=Come On Over (Live)
TTITLE28=Blue Monday (Live)
TTITLE29=Sometimes (Live)
TTITLE30=Any Time You Want Love (Live)
TTITLE31=I Cried Over You (Live)
TTITLE32=Ol' Sol (Live)
EXTD=
EXTT0=
EXTT1=
EXTT2=
EXTT3=
EXTT4=
EXTT5=
EXTT6=
EXTT7=
EXTT8=
EXTT9=
EXTT10=
EXTT11=
EXTT12=
EXTT13=
EXTT14=
EXTT15=
EXTT16=
EXTT17=
EXTT18=
EXTT19=
EXTT20=
EXTT21=
EXTT22=
EXTT23=
EXTT24=
EXTT25=
EXTT26=
EXTT27=
EXTT28=
EXTT29=
EXTT30=
EXTT31=
EXTT32=
PLAYORDER=
